<svg width="243" height="125" viewBox="0 0 243 125" fill="none" xmlns="http://www.w3.org/2000/svg">
<path d="M0 57.27L0 68.1253C0 108.01 17.6266 124.86 47.1179 124.86L196.849 124.86C226.34 124.86 243 105.117 243 68.1253V56.7783C243 21.943 226.662 0.534889 196.849 0.534889L47.1179 0.534889C18.5932 0.591629 0 17.3852 0 57.27ZM200.298 67.3311L42.6259 67.3311C38.3425 67.3311 36.106 65.6668 35.6511 62.622C36.106 59.2936 38.3425 57.6293 42.6259 57.6293L200.298 57.6293C204.089 57.6293 206.193 59.2936 206.629 62.622C206.193 65.6668 204.013 67.3311 200.298 67.3311Z" fill="#E8E8E8"/>
</svg>
