<svg width="241" height="130" viewBox="0 0 241 130" fill="none" xmlns="http://www.w3.org/2000/svg">
<path d="M0.883728 38.906L0.883728 129.023C8.12801 121.112 18.5666 118.324 27.5032 118.305L213.497 118.305C222.433 118.324 232.853 121.112 240.116 129.023V52.4877C236.882 55.7882 233.022 58.4239 228.757 60.2438C224.493 62.0637 219.908 63.0319 215.265 63.093H195.662V38.0772C195.662 17.5823 185.375 0.930237 163.833 0.930237H32.0855C9.8963 0.930237 0.883728 16.7535 0.883728 38.906ZM157.083 55.5581C161.266 55.5581 163.186 57.6491 163.186 61.8309V63.093L31.7623 63.093V61.7744C31.7623 56.3493 34.0059 55.5016 37.8657 55.5016L157.083 55.5581Z" fill="#E8E8E8"/>
</svg>
